<?xml version="1.0" encoding="UTF-8" standalone="no"?>
<svg
   xmlns:dc="http://purl.org/dc/elements/1.1/"
   xmlns:cc="http://creativecommons.org/ns#"
   xmlns:rdf="http://www.w3.org/1999/02/22-rdf-syntax-ns#"
   xmlns:svg="http://www.w3.org/2000/svg"
   xmlns="http://www.w3.org/2000/svg"
   xmlns:sodipodi="http://sodipodi.sourceforge.net/DTD/sodipodi-0.dtd"
   xmlns:inkscape="http://www.inkscape.org/namespaces/inkscape"
   t="1559185243904"
   class="icon"
   style=""
   viewBox="0 0 1024 1024"
   version="1.1"
   p-id="4041"
   width="48"
   height="48"
   id="svg3779"
   sodipodi:docname="singing-bird.svg"
   inkscape:version="0.92.4 (5da689c313, 2019-01-14)">
  <metadata
     id="metadata3783">
    <rdf:RDF>
      <cc:Work
         rdf:about="">
        <dc:format>image/svg+xml</dc:format>
        <dc:type
           rdf:resource="http://purl.org/dc/dcmitype/StillImage" />
      </cc:Work>
    </rdf:RDF>
  </metadata>
  <sodipodi:namedview
     pagecolor="#ffffff"
     bordercolor="#666666"
     borderopacity="1"
     objecttolerance="10"
     gridtolerance="10"
     guidetolerance="10"
     inkscape:pageopacity="0"
     inkscape:pageshadow="2"
     inkscape:window-width="1920"
     inkscape:window-height="1018"
     id="namedview3781"
     showgrid="true"
     inkscape:snap-page="true"
     inkscape:zoom="15.28"
     inkscape:cx="12.228329"
     inkscape:cy="25.864126"
     inkscape:window-x="-8"
     inkscape:window-y="-8"
     inkscape:window-maximized="1"
     inkscape:current-layer="svg3779"
     inkscape:lockguides="false"
     showguides="true" />
  <defs
     id="defs3762">
    <style
       type="text/css"
       id="style3760" />
  </defs>
  <path
     d="M351.893333 469.333333s150.08 0.746667 214.08-63.253333a106.666667 106.666667 0 0 0-150.826666-150.826667C340.48 329.92 351.893333 469.333333 351.893333 469.333333z"
     fill="#FFC107"
     p-id="4042"
     id="path3764" />
  <path
     d="M625.834667 661.952C542.186667 745.578667 265.941333 768 265.941333 768s22.421333-254.912 116.714667-349.205333a171.946667 171.946667 0 0 1 243.178667 0 171.925333 171.925333 0 0 1 0 243.157333z"
     fill="#FFC107"
     p-id="4043"
     id="path3766" />
  <path
     d="M593.685333 299.584l67.541334-75.584-92.714667 34.346667-29.930667 59.904 57.152 27.797333 86.826667-36.714667z"
     p-id="4044"
     id="path3768"
     fill="#455A64" />
  <path
     d="M471.978667 270.506667c1.792 3.968 2.837333 8.32 2.837333 12.906666 0 17.365333-14.101333 31.509333-31.509333 31.509334-4.608 0-8.96-1.045333-12.906667-2.837334a31.509333 31.509333 0 0 0 60.181333-12.928 31.509333 31.509333 0 0 0-18.602666-28.650666z"
     fill="#795548"
     p-id="4045"
     id="path3770" />
  <path
     id="note"
     d="M844.416 106.666667c-13.696 0-35.946667-0.810667-36.010667 11.754666v121.578667s-5.205333-3.114667-17.386666-1.706667c-24.576 2.88-44.394667 22.122667-44.458667 41.749334-0.106667 19.797333 19.754667 31.893333 44.245333 28.565333 24.490667-3.434667 42.773333-21.568 42.901334-41.365333V166.890667c0-8.746667 6.826667-12.501333 10.496-12.501334 78.08 0 71.829333 43.797333 71.829333 43.797334S932.970667 106.666667 844.416 106.666667z"
     fill="#FF1744"
     p-id="4046" />
  <g
     id="wing">
    <path
       id="path3773"
       p-id="4047"
       d="m 496.27733,603.008 c -42.176,42.176 -133.184,86.82667 -250.816,111.89333 35.11467,-135.552 66.64533,-211.73333 108.8,-253.888 20.60858,-20.60858 46.8965,-31.71251 72.96759,-33.10275 27.28409,-1.45492 54.3307,7.72879 74.38175,27.79075 39.21066,39.168 36.8,105.13067 -5.33334,147.30667 z"
       inkscape:connector-curvature="0"
       style="fill:#90a4ae"
       sodipodi:nodetypes="ccsscc" />
    <path
       d="m 300.43733,545.68533 c -18.73066,42.26134 -36.352,97.344 -54.976,169.216 117.632,-25.06666 208.64,-69.73866 250.816,-111.89333 A 111.95733,111.95733 0 0 0 529.408,528.68267 C 431.488,512 352.04267,527.82933 300.43733,545.68533 Z"
       id="path3775"
       inkscape:connector-curvature="0" />
    <path
       d="m 468.65067,522.53867 c -3.41334,4.71466 -6.95467,9.344 -11.2,13.568 -34.32534,34.304 -101.376,70.144 -188.45867,95.85066 -4.33067,13.86667 -8.64,28.37334 -13.01333,44.01067 103.872,-25.83467 184.10666,-66.45333 222.80533,-105.19467 a 113.04533,113.04533 0 0 0 27.37067,-45.20533 513.13067,513.13067 0 0 0 -37.504,-3.02933 z m -185.792,67.84 C 340.56533,570.83733 387.54133,547.02933 419.79733,522.816 a 442.83733,442.83733 0 0 0 -119.36,22.86933 c -5.952,13.44 -11.79733,28.43734 -17.57866,44.69334 z"
       p-id="4049"
       id="path3777"
       inkscape:connector-curvature="0"
       style="fill:#37474f" />
  </g>
  <path
     d="m 265.94133,768 c 0,0 0.96,-10.47467 3.11467,-27.41333 L 106.56,789.33333 c 0,106.66667 128,85.33334 128,85.33334 L 298.56,768 l 1.792,-3.584 C 279.04,766.93333 265.94133,768 265.94133,768 Z"
     id="tail"
     inkscape:connector-curvature="0" />
</svg>
